<svg id="visual" viewBox="0 0 1240 768" width="1240" height="768" xmlns="http://www.w3.org/2000/svg" xmlns:xlink="http://www.w3.org/1999/xlink" version="1.1"><rect x="0" y="0" width="1240" height="768" fill="#000000"></rect><path d="M535 0L565 0L565 110L471 110L471 219L528 219L528 329L471 329L471 439L638 439L638 549L539 549L539 658L590 658L590 768L0 768L0 658L0 658L0 549L0 549L0 439L0 439L0 329L0 329L0 219L0 219L0 110L0 110L0 0L0 0Z" fill="#150022"></path><path d="M342 0L317 0L317 110L513 110L513 219L349 219L349 329L417 329L417 439L376 439L376 549L513 549L513 658L448 658L448 768L0 768L0 658L0 658L0 549L0 549L0 439L0 439L0 329L0 329L0 219L0 219L0 110L0 110L0 0L0 0Z" fill="#4d148a"></path><path d="M171 0L208 0L208 110L257 110L257 219L315 219L315 329L213 329L213 439L161 439L161 549L319 549L319 658L302 658L302 768L0 768L0 658L0 658L0 549L0 549L0 439L0 439L0 329L0 329L0 219L0 219L0 110L0 110L0 0L0 0Z" fill="#9900ff"></path></svg>