<svg id="visual" viewBox="0 0 1500 1000" width="1500" height="1000" xmlns="http://www.w3.org/2000/svg" xmlns:xlink="http://www.w3.org/1999/xlink" version="1.1"><rect x="0" y="0" width="1500" height="1000" fill="#140021"></rect><path d="M0 398L41.7 389.5C83.3 381 166.7 364 250 376.3C333.3 388.7 416.7 430.3 500 441C583.3 451.7 666.7 431.3 750 420.8C833.3 410.3 916.7 409.7 1000 426.3C1083.3 443 1166.7 477 1250 496C1333.3 515 1416.7 519 1458.3 521L1500 523L1500 1001L1458.3 1001C1416.7 1001 1333.3 1001 1250 1001C1166.7 1001 1083.3 1001 1000 1001C916.7 1001 833.3 1001 750 1001C666.7 1001 583.3 1001 500 1001C416.7 1001 333.3 1001 250 1001C166.7 1001 83.3 1001 41.7 1001L0 1001Z" fill="#560060"></path><path d="M0 590L41.7 578C83.3 566 166.7 542 250 551.2C333.3 560.3 416.7 602.7 500 633.3C583.3 664 666.7 683 750 658.3C833.3 633.7 916.7 565.3 1000 545.8C1083.3 526.3 1166.7 555.7 1250 583C1333.3 610.3 1416.7 635.7 1458.3 648.3L1500 661L1500 1001L1458.3 1001C1416.7 1001 1333.3 1001 1250 1001C1166.7 1001 1083.3 1001 1000 1001C916.7 1001 833.3 1001 750 1001C666.7 1001 583.3 1001 500 1001C416.7 1001 333.3 1001 250 1001C166.7 1001 83.3 1001 41.7 1001L0 1001Z" fill="#72008f"></path><path d="M0 758L41.7 745.3C83.3 732.7 166.7 707.3 250 697.2C333.3 687 416.7 692 500 687.8C583.3 683.7 666.7 670.3 750 688.8C833.3 707.3 916.7 757.7 1000 759C1083.3 760.3 1166.7 712.7 1250 685C1333.3 657.3 1416.7 649.7 1458.3 645.8L1500 642L1500 1001L1458.3 1001C1416.7 1001 1333.3 1001 1250 1001C1166.7 1001 1083.3 1001 1000 1001C916.7 1001 833.3 1001 750 1001C666.7 1001 583.3 1001 500 1001C416.7 1001 333.3 1001 250 1001C166.7 1001 83.3 1001 41.7 1001L0 1001Z" fill="#8900c4"></path><path d="M0 869L41.7 862.8C83.3 856.7 166.7 844.3 250 829.2C333.3 814 416.7 796 500 801C583.3 806 666.7 834 750 852.3C833.3 870.7 916.7 879.3 1000 864.5C1083.3 849.7 1166.7 811.3 1250 814.2C1333.3 817 1416.7 861 1458.3 883L1500 905L1500 1001L1458.3 1001C1416.7 1001 1333.3 1001 1250 1001C1166.7 1001 1083.3 1001 1000 1001C916.7 1001 833.3 1001 750 1001C666.7 1001 583.3 1001 500 1001C416.7 1001 333.3 1001 250 1001C166.7 1001 83.3 1001 41.7 1001L0 1001Z" fill="#9900ff"></path></svg>