<svg id="visual" viewBox="0 0 960 540" width="960" height="540" xmlns="http://www.w3.org/2000/svg" xmlns:xlink="http://www.w3.org/1999/xlink" version="1.1"><rect x="0" y="0" width="960" height="540" fill="#140021"></rect><path d="M0 241L137 241L137 341L274 341L274 330L411 330L411 309L549 309L549 277L686 277L686 292L823 292L823 284L960 284L960 245L960 541L960 541L823 541L823 541L686 541L686 541L549 541L549 541L411 541L411 541L274 541L274 541L137 541L137 541L0 541Z" fill="#9900ff"></path><path d="M0 333L137 333L137 408L274 408L274 325L411 325L411 347L549 347L549 347L686 347L686 415L823 415L823 386L960 386L960 335L960 541L960 541L823 541L823 541L686 541L686 541L549 541L549 541L411 541L411 541L274 541L274 541L137 541L137 541L0 541Z" fill="#7700c6"></path><path d="M0 443L137 443L137 492L274 492L274 461L411 461L411 408L549 408L549 414L686 414L686 481L823 481L823 446L960 446L960 448L960 541L960 541L823 541L823 541L686 541L686 541L549 541L549 541L411 541L411 541L274 541L274 541L137 541L137 541L0 541Z" fill="#560090"></path></svg>