<svg id="visual" viewBox="0 0 5000 3000" width="5000" height="3000" xmlns="http://www.w3.org/2000/svg" xmlns:xlink="http://www.w3.org/1999/xlink" version="1.1"><rect x="0" y="0" width="5000" height="3000" fill="#140021"></rect><path d="M2383 0L2017 0L2017 429L1812 429L1812 857L2340 857L2340 1286L2757 1286L2757 1714L1993 1714L1993 2143L2816 2143L2816 2571L2645 2571L2645 3000L0 3000L0 2571L0 2571L0 2143L0 2143L0 1714L0 1714L0 1286L0 1286L0 857L0 857L0 429L0 429L0 0L0 0Z" fill="#560090"></path><path d="M2047 0L1956 0L1956 429L1831 429L1831 857L1602 857L1602 1286L1120 1286L1120 1714L1231 1714L1231 2143L1293 2143L1293 2571L1306 2571L1306 3000L0 3000L0 2571L0 2571L0 2143L0 2143L0 1714L0 1714L0 1286L0 1286L0 857L0 857L0 429L0 429L0 0L0 0Z" fill="#7700c6"></path><path d="M611 0L496 0L496 429L990 429L990 857L486 857L486 1286L981 1286L981 1714L1115 1714L1115 2143L513 2143L513 2571L819 2571L819 3000L0 3000L0 2571L0 2571L0 2143L0 2143L0 1714L0 1714L0 1286L0 1286L0 857L0 857L0 429L0 429L0 0L0 0Z" fill="#9900ff"></path></svg>