<svg id="visual" viewBox="0 0 960 540" width="960" height="540" xmlns="http://www.w3.org/2000/svg" xmlns:xlink="http://www.w3.org/1999/xlink" version="1.1"><rect x="0" y="0" width="960" height="540" fill="#140021"></rect><defs><linearGradient id="grad1_0" x1="43.8%" y1="100%" x2="100%" y2="0%"><stop offset="14.444444444444446%" stop-color="#9900ff" stop-opacity="1"></stop><stop offset="85.55555555555554%" stop-color="#9900ff" stop-opacity="1"></stop></linearGradient></defs><defs><linearGradient id="grad1_1" x1="43.8%" y1="100%" x2="100%" y2="0%"><stop offset="14.444444444444446%" stop-color="#9900ff" stop-opacity="1"></stop><stop offset="85.55555555555554%" stop-color="#7014c3" stop-opacity="1"></stop></linearGradient></defs><defs><linearGradient id="grad1_2" x1="43.8%" y1="100%" x2="100%" y2="0%"><stop offset="14.444444444444446%" stop-color="#4b1589" stop-opacity="1"></stop><stop offset="85.55555555555554%" stop-color="#7014c3" stop-opacity="1"></stop></linearGradient></defs><defs><linearGradient id="grad1_3" x1="43.8%" y1="100%" x2="100%" y2="0%"><stop offset="14.444444444444446%" stop-color="#4b1589" stop-opacity="1"></stop><stop offset="85.55555555555554%" stop-color="#2c1053" stop-opacity="1"></stop></linearGradient></defs><defs><linearGradient id="grad1_4" x1="43.8%" y1="100%" x2="100%" y2="0%"><stop offset="14.444444444444446%" stop-color="#140021" stop-opacity="1"></stop><stop offset="85.55555555555554%" stop-color="#2c1053" stop-opacity="1"></stop></linearGradient></defs><defs><linearGradient id="grad2_0" x1="0%" y1="100%" x2="56.3%" y2="0%"><stop offset="14.444444444444446%" stop-color="#9900ff" stop-opacity="1"></stop><stop offset="85.55555555555554%" stop-color="#9900ff" stop-opacity="1"></stop></linearGradient></defs><defs><linearGradient id="grad2_1" x1="0%" y1="100%" x2="56.3%" y2="0%"><stop offset="14.444444444444446%" stop-color="#7014c3" stop-opacity="1"></stop><stop offset="85.55555555555554%" stop-color="#9900ff" stop-opacity="1"></stop></linearGradient></defs><defs><linearGradient id="grad2_2" x1="0%" y1="100%" x2="56.3%" y2="0%"><stop offset="14.444444444444446%" stop-color="#7014c3" stop-opacity="1"></stop><stop offset="85.55555555555554%" stop-color="#4b1589" stop-opacity="1"></stop></linearGradient></defs><defs><linearGradient id="grad2_3" x1="0%" y1="100%" x2="56.3%" y2="0%"><stop offset="14.444444444444446%" stop-color="#2c1053" stop-opacity="1"></stop><stop offset="85.55555555555554%" stop-color="#4b1589" stop-opacity="1"></stop></linearGradient></defs><defs><linearGradient id="grad2_4" x1="0%" y1="100%" x2="56.3%" y2="0%"><stop offset="14.444444444444446%" stop-color="#2c1053" stop-opacity="1"></stop><stop offset="85.55555555555554%" stop-color="#140021" stop-opacity="1"></stop></linearGradient></defs><g transform="translate(960, 540)"><path d="M-432 0C-429.9 -46.8 -427.9 -93.6 -410.9 -133.5C-393.8 -173.4 -361.9 -206.4 -333.3 -242.2C-304.8 -277.9 -279.6 -316.4 -243.9 -335.7C-208.2 -355.1 -162 -355.2 -119.6 -368.1C-77.2 -380.9 -38.6 -406.5 0 -432L0 0Z" fill="#1e0c39"></path><path d="M-345.6 0C-343.9 -37.4 -342.3 -74.9 -328.7 -106.8C-315.1 -138.7 -289.5 -165.1 -266.7 -193.7C-243.8 -222.3 -223.7 -253.1 -195.1 -268.6C-166.6 -284.1 -129.6 -284.2 -95.7 -294.4C-61.7 -304.7 -30.9 -325.2 0 -345.6L0 0Z" fill="#3b136d"></path><path d="M-259.2 0C-258 -28.1 -256.7 -56.2 -246.5 -80.1C-236.3 -104 -217.1 -123.8 -200 -145.3C-182.9 -166.8 -167.8 -189.9 -146.4 -201.4C-124.9 -213 -97.2 -213.1 -71.8 -220.8C-46.3 -228.5 -23.2 -243.9 0 -259.2L0 0Z" fill="#5d16a6"></path><path d="M-172.8 0C-172 -18.7 -171.1 -37.4 -164.3 -53.4C-157.5 -69.4 -144.7 -82.6 -133.3 -96.9C-121.9 -111.2 -111.8 -126.6 -97.6 -134.3C-83.3 -142 -64.8 -142.1 -47.8 -147.2C-30.9 -152.4 -15.4 -162.6 0 -172.8L0 0Z" fill="#840fe1"></path><path d="M-86.4 0C-86 -9.4 -85.6 -18.7 -82.2 -26.7C-78.8 -34.7 -72.4 -41.3 -66.7 -48.4C-61 -55.6 -55.9 -63.3 -48.8 -67.1C-41.6 -71 -32.4 -71 -23.9 -73.6C-15.4 -76.2 -7.7 -81.3 0 -86.4L0 0Z" fill="#9900ff"></path></g><g transform="translate(0, 0)"><path d="M432 0C409 37.7 386.1 75.3 378.5 123C371 170.7 378.8 228.3 349.5 253.9C320.2 279.5 253.7 273.1 212.8 292.9C171.9 312.6 156.7 358.6 125.5 386.1C94.3 413.7 47.1 422.8 0 432L0 0Z" fill="#1e0c39"></path><path d="M345.6 0C327.2 30.1 308.9 60.3 302.8 98.4C296.8 136.5 303.1 182.6 279.6 203.1C256.1 223.6 202.9 218.5 170.2 234.3C137.5 250.1 125.3 286.9 100.4 308.9C75.4 330.9 37.7 338.3 0 345.6L0 0Z" fill="#3b136d"></path><path d="M259.2 0C245.4 22.6 231.6 45.2 227.1 73.8C222.6 102.4 227.3 137 209.7 152.4C192.1 167.7 152.2 163.9 127.7 175.7C103.1 187.6 94 215.1 75.3 231.7C56.6 248.2 28.3 253.7 0 259.2L0 0Z" fill="#5d16a6"></path><path d="M172.8 0C163.6 15.1 154.4 30.1 151.4 49.2C148.4 68.3 151.5 91.3 139.8 101.6C128.1 111.8 101.5 109.2 85.1 117.1C68.8 125 62.7 143.4 50.2 154.5C37.7 165.5 18.9 169.1 0 172.8L0 0Z" fill="#840fe1"></path><path d="M86.4 0C81.8 7.5 77.2 15.1 75.7 24.6C74.2 34.1 75.8 45.7 69.9 50.8C64 55.9 50.7 54.6 42.6 58.6C34.4 62.5 31.3 71.7 25.1 77.2C18.9 82.7 9.4 84.6 0 86.4L0 0Z" fill="#9900ff"></path></g></svg>