<svg id="visual" viewBox="0 0 960 540" width="960" height="540" xmlns="http://www.w3.org/2000/svg" xmlns:xlink="http://www.w3.org/1999/xlink" version="1.1"><g stroke-width="1" stroke-linejoin="bevel"><path d="M434.7 282L354 269L370 324Z" fill="#5c009b" stroke="#5c009b"></path><path d="M404.7 156L329 206L354 269Z" fill="#7e00d1" stroke="#7e00d1"></path><path d="M205.3 396L364 401L370 324Z" fill="#9200f3" stroke="#9200f3"></path><path d="M370 324L421.7 400L434.7 282Z" fill="#560090" stroke="#560090"></path><path d="M205.3 396L370 324L354 269Z" fill="#560090" stroke="#560090"></path><path d="M370 324L364 401L421.7 400Z" fill="#8400dc" stroke="#8400dc"></path><path d="M434.7 282L404.7 156L354 269Z" fill="#7000bb" stroke="#7000bb"></path><path d="M421.7 400L515.3 352L434.7 282Z" fill="#8b00e8" stroke="#8b00e8"></path><path d="M434.7 282L520.3 196L404.7 156Z" fill="#8400dc" stroke="#8400dc"></path><path d="M583.3 300L520.3 196L434.7 282Z" fill="#7700c6" stroke="#7700c6"></path><path d="M364 401L433.7 473L421.7 400Z" fill="#6a00b0" stroke="#6a00b0"></path><path d="M421.7 400L555.3 461L515.3 352Z" fill="#7700c6" stroke="#7700c6"></path><path d="M593 352L583.3 300L515.3 352Z" fill="#9200f3" stroke="#9200f3"></path><path d="M515.3 352L583.3 300L434.7 282Z" fill="#9200f3" stroke="#9200f3"></path><path d="M247.3 146L211.3 215L329 206Z" fill="#7000bb" stroke="#7000bb"></path><path d="M329 206L211.3 215L354 269Z" fill="#8400dc" stroke="#8400dc"></path><path d="M476.7 62L328 100L404.7 156Z" fill="#9200f3" stroke="#9200f3"></path><path d="M404.7 156L328 100L329 206Z" fill="#6a00b0" stroke="#6a00b0"></path><path d="M328 100L247.3 146L329 206Z" fill="#5c009b" stroke="#5c009b"></path><path d="M555.3 461L593 352L515.3 352Z" fill="#5c009b" stroke="#5c009b"></path><path d="M211.3 215L205.3 396L354 269Z" fill="#7700c6" stroke="#7700c6"></path><path d="M364 401L319 540L433.7 473Z" fill="#9900ff" stroke="#9900ff"></path><path d="M433.7 473L555.3 461L421.7 400Z" fill="#6300a5" stroke="#6300a5"></path><path d="M562.3 86L476.7 62L520.3 196Z" fill="#7000bb" stroke="#7000bb"></path><path d="M520.3 196L476.7 62L404.7 156Z" fill="#8b00e8" stroke="#8b00e8"></path><path d="M106.7 407L177.3 427L205.3 396Z" fill="#8b00e8" stroke="#8b00e8"></path><path d="M254.3 540L319 540L364 401Z" fill="#5c009b" stroke="#5c009b"></path><path d="M254.3 540L364 401L205.3 396Z" fill="#9900ff" stroke="#9900ff"></path><path d="M433.7 473L484.3 540L555.3 461Z" fill="#8b00e8" stroke="#8b00e8"></path><path d="M562.3 86L520.3 196L652 128Z" fill="#560090" stroke="#560090"></path><path d="M586 72L562.3 86L652 128Z" fill="#6a00b0" stroke="#6a00b0"></path><path d="M307 0L210.3 95L328 100Z" fill="#5c009b" stroke="#5c009b"></path><path d="M328 100L210.3 95L247.3 146Z" fill="#8b00e8" stroke="#8b00e8"></path><path d="M247.3 146L210.3 95L211.3 215Z" fill="#7e00d1" stroke="#7e00d1"></path><path d="M211.3 215L118.7 245L205.3 396Z" fill="#9900ff" stroke="#9900ff"></path><path d="M319 540L473.7 540L433.7 473Z" fill="#8b00e8" stroke="#8b00e8"></path><path d="M473.7 540L484.3 540L433.7 473Z" fill="#7e00d1" stroke="#7e00d1"></path><path d="M210.3 95L118.7 245L211.3 215Z" fill="#560090" stroke="#560090"></path><path d="M177.3 427L254.3 540L205.3 396Z" fill="#5c009b" stroke="#5c009b"></path><path d="M496.3 0L396.7 0L476.7 62Z" fill="#7000bb" stroke="#7000bb"></path><path d="M476.7 62L396.7 0L328 100Z" fill="#7700c6" stroke="#7700c6"></path><path d="M682 255L520.3 196L583.3 300Z" fill="#9900ff" stroke="#9900ff"></path><path d="M562.3 86L496.3 0L476.7 62Z" fill="#7e00d1" stroke="#7e00d1"></path><path d="M696.7 349L583.3 300L593 352Z" fill="#5c009b" stroke="#5c009b"></path><path d="M696.7 349L682 255L583.3 300Z" fill="#560090" stroke="#560090"></path><path d="M396.7 0L307 0L328 100Z" fill="#7e00d1" stroke="#7e00d1"></path><path d="M682 255L652 128L520.3 196Z" fill="#7700c6" stroke="#7700c6"></path><path d="M586 72L496.3 0L562.3 86Z" fill="#7e00d1" stroke="#7e00d1"></path><path d="M118.7 245L106.7 407L205.3 396Z" fill="#8b00e8" stroke="#8b00e8"></path><path d="M177.3 427L123.7 540L254.3 540Z" fill="#7000bb" stroke="#7000bb"></path><path d="M692.7 473L696.7 349L593 352Z" fill="#7700c6" stroke="#7700c6"></path><path d="M661 498L593 352L555.3 461Z" fill="#9200f3" stroke="#9200f3"></path><path d="M210.3 95L74.7 227L118.7 245Z" fill="#9900ff" stroke="#9900ff"></path><path d="M118.7 245L0 314L106.7 407Z" fill="#7000bb" stroke="#7000bb"></path><path d="M95.7 36L74.7 227L210.3 95Z" fill="#5c009b" stroke="#5c009b"></path><path d="M307 0L225.3 0L210.3 95Z" fill="#9900ff" stroke="#9900ff"></path><path d="M638 540L661 498L555.3 461Z" fill="#560090" stroke="#560090"></path><path d="M0 474L97.7 478L106.7 407Z" fill="#7e00d1" stroke="#7e00d1"></path><path d="M106.7 407L97.7 478L177.3 427Z" fill="#560090" stroke="#560090"></path><path d="M484.3 540L638 540L555.3 461Z" fill="#6300a5" stroke="#6300a5"></path><path d="M747.7 540L692.7 473L661 498Z" fill="#6300a5" stroke="#6300a5"></path><path d="M661 498L692.7 473L593 352Z" fill="#7e00d1" stroke="#7e00d1"></path><path d="M97.7 478L123.7 540L177.3 427Z" fill="#8b00e8" stroke="#8b00e8"></path><path d="M652 128L639 0L586 72Z" fill="#6a00b0" stroke="#6a00b0"></path><path d="M586 72L639 0L496.3 0Z" fill="#9900ff" stroke="#9900ff"></path><path d="M715.7 84L639 0L652 128Z" fill="#6300a5" stroke="#6300a5"></path><path d="M793.7 170L715.7 84L652 128Z" fill="#7700c6" stroke="#7700c6"></path><path d="M772.7 216L652 128L682 255Z" fill="#8400dc" stroke="#8400dc"></path><path d="M772.7 216L682 255L696.7 349Z" fill="#8b00e8" stroke="#8b00e8"></path><path d="M828.3 241L772.7 216L696.7 349Z" fill="#9900ff" stroke="#9900ff"></path><path d="M225.3 0L95.7 36L210.3 95Z" fill="#6a00b0" stroke="#6a00b0"></path><path d="M74.7 227L0 314L118.7 245Z" fill="#7e00d1" stroke="#7e00d1"></path><path d="M97.7 478L0 540L123.7 540Z" fill="#6a00b0" stroke="#6a00b0"></path><path d="M0 231L0 314L74.7 227Z" fill="#6a00b0" stroke="#6a00b0"></path><path d="M0 126L0 231L74.7 227Z" fill="#9900ff" stroke="#9900ff"></path><path d="M772.7 216L793.7 170L652 128Z" fill="#9200f3" stroke="#9200f3"></path><path d="M828.3 241L793.7 170L772.7 216Z" fill="#7e00d1" stroke="#7e00d1"></path><path d="M95.7 36L0 126L74.7 227Z" fill="#9200f3" stroke="#9200f3"></path><path d="M0 314L0 474L106.7 407Z" fill="#560090" stroke="#560090"></path><path d="M638 540L747.7 540L661 498Z" fill="#6a00b0" stroke="#6a00b0"></path><path d="M692.7 473L806.3 490L696.7 349Z" fill="#560090" stroke="#560090"></path><path d="M95.7 36L0 96L0 126Z" fill="#7700c6" stroke="#7700c6"></path><path d="M225.3 0L62.7 0L95.7 36Z" fill="#6300a5" stroke="#6300a5"></path><path d="M95.7 36L62.7 0L0 96Z" fill="#6300a5" stroke="#6300a5"></path><path d="M862.3 309L828.3 241L696.7 349Z" fill="#5c009b" stroke="#5c009b"></path><path d="M820.3 55L715.7 84L793.7 170Z" fill="#8400dc" stroke="#8400dc"></path><path d="M820.3 55L731.7 0L715.7 84Z" fill="#6300a5" stroke="#6300a5"></path><path d="M715.7 84L731.7 0L639 0Z" fill="#8b00e8" stroke="#8b00e8"></path><path d="M747.7 540L806.3 490L692.7 473Z" fill="#7e00d1" stroke="#7e00d1"></path><path d="M0 474L0 540L97.7 478Z" fill="#6300a5" stroke="#6300a5"></path><path d="M806.3 490L862.3 309L696.7 349Z" fill="#6300a5" stroke="#6300a5"></path><path d="M828.3 241L851.3 175L793.7 170Z" fill="#7000bb" stroke="#7000bb"></path><path d="M960 215L851.3 175L828.3 241Z" fill="#7700c6" stroke="#7700c6"></path><path d="M62.7 0L0 0L0 96Z" fill="#5c009b" stroke="#5c009b"></path><path d="M851.3 175L820.3 55L793.7 170Z" fill="#9200f3" stroke="#9200f3"></path><path d="M747.7 540L899.3 540L806.3 490Z" fill="#5c009b" stroke="#5c009b"></path><path d="M960 491L960 338L862.3 309Z" fill="#6300a5" stroke="#6300a5"></path><path d="M862.3 309L960 215L828.3 241Z" fill="#560090" stroke="#560090"></path><path d="M960 491L862.3 309L806.3 490Z" fill="#5c009b" stroke="#5c009b"></path><path d="M960 96L885.3 0L820.3 55Z" fill="#560090" stroke="#560090"></path><path d="M960 96L820.3 55L851.3 175Z" fill="#560090" stroke="#560090"></path><path d="M820.3 55L885.3 0L731.7 0Z" fill="#560090" stroke="#560090"></path><path d="M960 338L960 215L862.3 309Z" fill="#8b00e8" stroke="#8b00e8"></path><path d="M960 215L960 199L851.3 175Z" fill="#5c009b" stroke="#5c009b"></path><path d="M960 199L960 96L851.3 175Z" fill="#5c009b" stroke="#5c009b"></path><path d="M899.3 540L960 491L806.3 490Z" fill="#7e00d1" stroke="#7e00d1"></path><path d="M899.3 540L960 540L960 491Z" fill="#9200f3" stroke="#9200f3"></path><path d="M960 96L960 0L885.3 0Z" fill="#9200f3" stroke="#9200f3"></path></g></svg>